<?xml version="1.0" encoding="utf-8"?>
<!-- Generator: Adobe Illustrator 24.3.0, SVG Export Plug-In . SVG Version: 6.00 Build 0)  -->
<svg version="1.1" id="Laag_1" focusable="false" xmlns="http://www.w3.org/2000/svg" xmlns:xlink="http://www.w3.org/1999/xlink"
	 x="0px" y="0px" viewBox="0 0 512 512" style="enable-background:new 0 0 512 512;" xml:space="preserve">
<style type="text/css">
	.st0{fill:#569E78;}
</style>
<path class="st0" d="M478.7,200.3c3.5-2.8,8.8-0.2,8.8,4.3v185.9c0,24.1-19.5,43.6-43.6,43.6H65.6c-24.1,0-43.6-19.5-43.6-43.6
	V204.7c0-4.5,5.2-7.1,8.8-4.3c20.4,15.8,47.4,35.9,140.1,103.3c19.2,14,51.5,43.5,83.8,43.3c32.5,0.3,65.5-29.8,83.9-43.3
	C431.4,236.3,458.3,216.1,478.7,200.3z M254.7,317.8c21.1,0.4,51.5-26.5,66.7-37.6C442,192.6,451.2,185,479,163.2
	c5.3-4.1,8.4-10.5,8.4-17.2v-17.3c0-24.1-19.5-43.6-43.6-43.6H65.6C41.5,85,22,104.6,22,128.7V146c0,6.7,3.1,13,8.4,17.2
	c27.8,21.7,37,29.5,157.6,117C203.3,291.2,233.6,318.1,254.7,317.8L254.7,317.8z"/>
</svg>
